<svg width="96" height="96" viewBox="0 0 96 96" fill="none" xmlns="http://www.w3.org/2000/svg">
<path d="M48 12C50.2091 12 52 10.2091 52 8C52 5.79086 50.2091 4 48 4C45.7909 4 44 5.79086 44 8C44 10.2091 45.7909 12 48 12Z" fill="#4D4D4D"/>
<path d="M84 28C86.2091 28 88 26.2091 88 24C88 21.7909 86.2091 20 84 20C81.7909 20 80 21.7909 80 24C80 26.2091 81.7909 28 84 28Z" fill="#4D4D4D"/>
<path d="M84 72C86.2091 72 88 70.2091 88 68C88 65.7909 86.2091 64 84 64C81.7909 64 80 65.7909 80 68C80 70.2091 81.7909 72 84 72Z" fill="#4D4D4D"/>
<path d="M48 92C50.2091 92 52 90.2091 52 88C52 85.7909 50.2091 84 48 84C45.7909 84 44 85.7909 44 88C44 90.2091 45.7909 92 48 92Z" fill="#4D4D4D"/>
<path d="M84 32C81.8802 31.9938 79.849 31.1489 78.35 29.65C76.8511 28.151 76.0062 26.1198 76 24C76.0072 22.6514 76.3656 21.3279 77.04 20.16L56 8C55.9925 9.40641 55.6153 10.7861 54.9062 12.0007C54.1971 13.2153 53.181 14.2221 51.96 14.92C50.7601 15.6272 49.3928 16.0001 48 16.0001C46.6072 16.0001 45.2399 15.6272 44.04 14.92C42.819 14.2221 41.8029 13.2153 41.0938 12.0007C40.3847 10.7861 40.0075 9.40641 40 8L18.96 20.16C19.6344 21.3279 19.9928 22.6514 20 24C19.9938 26.1198 19.1489 28.151 17.65 29.65C16.151 31.1489 14.1198 31.9938 12 32C11.3244 31.9882 10.6528 31.8942 10 31.72V60.28C10.6528 60.1057 11.3244 60.0117 12 60C13.1393 60.0042 14.2645 60.2527 15.2995 60.7289C16.3346 61.205 17.2555 61.8976 18 62.76C18.6793 63.5655 19.2077 64.4869 19.56 65.48C19.8483 66.289 19.9971 67.1412 20 68C20.0036 69.0465 19.8005 70.0835 19.4024 71.0514C19.0043 72.0192 18.4189 72.8989 17.68 73.64L33.04 82.48L40.16 86.6C40.2107 86.2173 40.3047 85.8416 40.44 85.48C40.48 85.391 40.5069 85.2967 40.52 85.2C40.6557 84.8684 40.8162 84.5475 41 84.24C41.04 84.12 41.12 84 41.16 83.88C41.3602 83.6 41.52 83.32 41.72 83.08C41.84 82.96 41.92 82.84 42.04 82.72C42.2329 82.4872 42.4472 82.2729 42.68 82.08C42.807 81.9265 42.9551 81.7918 43.12 81.68C43.3373 81.5194 43.5644 81.3724 43.8 81.24C43.9909 81.1054 44.1914 80.9851 44.4 80.88C44.64 80.76 44.84 80.68 45.08 80.56L45.92 80.3198C46.101 80.2482 46.2885 80.1946 46.48 80.1598C47.4821 79.9466 48.5179 79.9466 49.52 80.1598C49.7115 80.1946 49.899 80.2482 50.08 80.3198L50.92 80.56C51.16 80.68 51.3602 80.76 51.6 80.88C51.8086 80.9851 52.0091 81.1054 52.2 81.24C52.4356 81.3724 52.6627 81.5194 52.88 81.68C53.0449 81.7918 53.193 81.9265 53.32 82.08C53.5528 82.2729 53.7671 82.4872 53.96 82.72C54.08 82.84 54.16 82.96 54.28 83.08C54.48 83.32 54.64 83.6 54.84 83.88C54.8798 84 54.96 84.12 55 84.24C55.1838 84.5475 55.3443 84.8684 55.48 85.2C55.4931 85.2967 55.52 85.391 55.56 85.48C55.6953 85.8416 55.7893 86.2173 55.84 86.6L62.96 82.48L78.32 73.64C77.5811 72.8989 76.9957 72.0192 76.5976 71.0514C76.1995 70.0835 75.9964 69.0465 76 68C76.0029 67.1412 76.1517 66.289 76.44 65.48C76.7923 64.4869 77.3207 63.5655 78 62.76C78.7445 61.8976 79.6654 61.205 80.7005 60.7289C81.7355 60.2527 82.8607 60.0042 84 60C84.6756 60.0117 85.3472 60.1057 86 60.28V31.72C85.3472 31.8942 84.6756 31.9882 84 32ZM48 52C47.2089 52 46.4355 51.7654 45.7777 51.3259C45.1199 50.8864 44.6072 50.2616 44.3045 49.5307C44.0017 48.7998 43.9225 47.9956 44.0769 47.2196C44.2312 46.4437 44.6122 45.731 45.1716 45.1716C45.731 44.6122 46.4437 44.2312 47.2196 44.0769C47.9956 43.9225 48.7998 44.0017 49.5307 44.3045C50.2616 44.6072 50.8864 45.1199 51.3259 45.7777C51.7654 46.4355 52 47.2089 52 48C51.9968 49.0599 51.5744 50.0755 50.8249 50.8249C50.0755 51.5744 49.0599 51.9968 48 52ZM78 53.2C75.0515 54.3945 72.5256 56.4401 70.7446 59.0761C68.9635 61.712 68.008 64.8188 68 68C68.0206 68.7518 68.1009 69.5009 68.24 70.24L58.36 75.92C56.5231 74.331 54.3479 73.1818 52 72.56V59.28C54.6689 58.3364 56.9182 56.4797 58.3505 54.0381C59.7828 51.5964 60.3059 48.7271 59.8272 45.9371C59.3485 43.1471 57.8989 40.6162 55.7346 38.7916C53.5704 36.967 50.8307 35.9663 48 35.9663C45.1693 35.9663 42.4296 36.967 40.2654 38.7916C38.1011 40.6162 36.6515 43.1471 36.1728 45.9371C35.6941 48.7271 36.2172 51.5964 37.6495 54.0381C39.0818 56.4797 41.3311 58.3364 44 59.28V72.56C41.6521 73.1818 39.4769 74.331 37.64 75.92L27.76 70.24C27.8991 69.5009 27.9794 68.7518 28 68C27.992 64.8188 27.0365 61.712 25.2554 59.0761C23.4744 56.4401 20.9485 54.3945 18 53.2V38.8C20.9231 37.6155 23.4315 35.5943 25.2104 32.9899C26.9894 30.3854 27.9598 27.3138 28 24.16L36.6 19.2C38.0844 20.7195 39.8576 21.9268 41.8153 22.7512C43.773 23.5755 45.8758 24.0001 48 24.0001C50.1242 24.0001 52.227 23.5755 54.1847 22.7512C56.1424 21.9268 57.9156 20.7195 59.4 19.2L68 24.16C68.0402 27.3138 69.0106 30.3854 70.7896 32.9899C72.5685 35.5943 75.0769 37.6155 78 38.8V53.2Z" fill="#4D4D4D"/>
<path d="M12 72C14.2091 72 16 70.2091 16 68C16 65.7909 14.2091 64 12 64C9.79086 64 8 65.7909 8 68C8 70.2091 9.79086 72 12 72Z" fill="#4D4D4D"/>
<path d="M12 28C14.2091 28 16 26.2091 16 24C16 21.7909 14.2091 20 12 20C9.79086 20 8 21.7909 8 24C8 26.2091 9.79086 28 12 28Z" fill="#4D4D4D"/>
</svg>
