<svg width="120" height="96" viewBox="0 0 120 96" fill="none" xmlns="http://www.w3.org/2000/svg">
<path d="M15 84.0001C30 84.0001 50 80.0001 50 52.0001V20.0001C50 15.0001 46.22 11.9321 40 12.0001H20C13.75 12.0001 10 15.0001 10 19.8881V44.0001C10 49.0001 13.75 52.0001 20 52.0001C25 52.0001 25 52.0001 25 56.0001V60.0001C25 64.0001 20 68.0001 15 68.0001C10 68.0001 10 68.0321 10 72.1241V80.0001C10 84.0001 10 84.0001 15 84.0001Z" stroke="#F5F5F5" stroke-width="2" stroke-linecap="round" stroke-linejoin="round"/>
<path d="M75 84.0001C90 84.0001 110 80.0001 110 52.0001V20.0001C110 15.0001 106.215 11.9321 100 12.0001H80C73.75 12.0001 70 15.0001 70 19.8881V44.0001C70 49.0001 73.75 52.0001 80 52.0001H83.75C83.75 61.0001 85 68.0001 70 68.0001V80.0001C70 84.0001 70 84.0001 75 84.0001Z" stroke="#F5F5F5" stroke-width="2" stroke-linecap="round" stroke-linejoin="round"/>
</svg>
