<svg width="96" height="96" viewBox="0 0 96 96" fill="none" xmlns="http://www.w3.org/2000/svg">
<g clip-path="url(#clip0_22_207)">
<path d="M84 40C70.9981 40.7538 58.4934 45.2606 48 52.9747C37.5066 45.2606 25.002 40.7538 12 40V51.8402C10.9475 51.8421 9.90572 52.0513 8.93408 52.4558C7.96244 52.8604 7.08 53.4523 6.33713 54.1979C5.59426 54.9434 5.00551 55.828 4.60451 56.8011C4.20351 57.7742 3.9981 58.8168 4.00001 59.8693V63.884C4.00001 68.3182 12 72.714 12 72.714V80.7431C22.624 81.4271 32.8697 84.9503 41.6675 90.945C43.8892 92.4863 46.0048 94.1751 48 96C49.9952 94.175 52.1108 92.4862 54.3325 90.9448C63.1303 84.9501 73.376 81.4269 84 80.7429V71.9128C86.1256 71.909 88.1625 71.0609 89.6628 69.5552C91.1631 68.0495 92.0038 66.0095 92 63.884V59.8693C92.0019 58.8168 91.7965 57.7742 91.3955 56.8011C90.9945 55.828 90.4058 54.9434 89.6629 54.1979C88.92 53.4523 88.0376 52.8604 87.0659 52.4558C86.0943 52.0513 85.0525 51.8421 84 51.8402V40ZM48 85.6885C39.7039 79.6087 30.1258 75.5093 20 73.7045V49.1005C27.7603 50.6648 35.1281 53.7696 41.6675 58.2312C43.8892 59.7724 46.0048 61.4612 48 63.2862C49.9952 61.4612 52.1108 59.7723 54.3325 58.231C60.8719 53.7694 68.2397 50.6646 76 49.1003V73.7043C65.8742 75.5091 56.2961 79.6086 48 85.6885V85.6885Z" fill="#4D4D4D"/>
<path d="M52 32H44V36H52V32Z" fill="#4D4D4D"/>
<path d="M52 16H44V20H52V16Z" fill="#4D4D4D"/>
<path d="M52 40H44V44H52V40Z" fill="#4D4D4D"/>
<path d="M36 20C37.0609 20 38.0783 19.5786 38.8284 18.8284C39.5786 18.0783 40 17.0609 40 16C40.0037 15.4789 39.9038 14.9623 39.7061 14.4802C39.5084 13.998 39.2169 13.56 38.8484 13.1915C38.48 12.8231 38.0419 12.5315 37.5598 12.3338C37.0777 12.1361 36.5611 12.0363 36.04 12.04C35.5141 12.0322 34.9919 12.1287 34.5035 12.324C34.0151 12.5193 33.5703 12.8094 33.1947 13.1776C32.8191 13.5458 32.5202 13.9848 32.3153 14.4692C32.1104 14.9536 32.0036 15.4738 32.0009 15.9998C31.9983 16.5257 32.0999 17.047 32.2999 17.5335C32.5 18.0199 32.7944 18.4619 33.1663 18.8338C33.5381 19.2058 33.98 19.5004 34.4664 19.7005C34.9528 19.9007 35.474 20.0025 36 20V20Z" fill="#4D4D4D"/>
<path d="M60 20C62.2091 20 64 18.2091 64 16C64 13.7909 62.2091 12 60 12C57.7909 12 56 13.7909 56 16C56 18.2091 57.7909 20 60 20Z" fill="#4D4D4D"/>
<path d="M64 32H32C28.8185 31.9965 25.7682 30.7311 23.5186 28.4814C21.2689 26.2318 20.0035 23.1815 20 20V12C20.0035 8.81847 21.2689 5.76824 23.5186 3.51855C25.7682 1.26887 28.8185 0.00347278 32 0L64 0C67.1815 0.00347278 70.2318 1.26887 72.4815 3.51855C74.7311 5.76824 75.9965 8.81847 76 12V20C75.9965 23.1815 74.7311 26.2318 72.4815 28.4814C70.2318 30.7311 67.1815 31.9965 64 32ZM32 8C30.9396 8.00138 29.9229 8.42325 29.1731 9.17309C28.4232 9.92294 28.0014 10.9396 28 12V20C28.0014 21.0604 28.4232 22.0771 29.1731 22.8269C29.9229 23.5768 30.9396 23.9986 32 24H64C65.0605 23.9989 66.0773 23.5772 66.8273 22.8273C67.5772 22.0773 67.9989 21.0605 68 20V12C67.9989 10.9395 67.5772 9.92266 66.8273 9.17274C66.0773 8.42283 65.0605 8.00106 64 8H32Z" fill="#4D4D4D"/>
</g>
<defs>
<clipPath id="clip0_22_207">
<rect width="96" height="96" fill="white"/>
</clipPath>
</defs>
</svg>
