<svg width="700" height="498" viewBox="0 0 700 498" fill="none" xmlns="http://www.w3.org/2000/svg">
<path d="M0 271.772L596.5 342.5L607 313L261.292 0L0 271.772Z" fill="url(#paint0_linear_69_118)"/>
<circle cx="597.452" cy="327.419" r="11.5581" fill="#F2F2F2"/>
<path fill-rule="evenodd" clip-rule="evenodd" d="M608.585 300.056C608.053 301.484 595.843 333.849 590.993 346.69C589 351.965 587.37 356.432 587.369 356.617C587.368 357.536 595.037 358.609 599.844 358.362C609.568 357.861 617.047 353.86 623.3 345.811L624.557 344.193L630.111 346.425C633.337 347.722 636.457 348.658 637.554 348.658C639.241 348.658 640.117 349.229 645.787 354.03C651.77 359.096 652.119 359.49 651.906 360.937C651.546 363.393 653.078 366.665 655.311 368.213C656.952 369.349 659.434 373.23 670.763 392.372C678.187 404.914 684.26 415.329 684.26 415.516C684.26 415.703 677.388 426.022 668.988 438.449C656.749 456.556 653.381 461.215 652.026 461.912C647.98 463.992 647.097 471.194 650.537 474.049C651.145 474.553 651.307 475.757 651.307 479.761V484.834L635.446 484.988C619.927 485.138 619.541 485.166 617.608 486.275C614.385 488.123 612.453 491.707 612.453 495.836V497.684H656.226H699.999V495.281C699.999 491.76 697.893 487.964 695.057 486.371L692.867 485.142L677.006 484.988L661.144 484.834V480.16C661.144 475.867 661.25 475.346 662.441 473.785C663.154 472.85 664.008 470.928 664.337 469.514C664.822 467.434 667.692 462.875 679.385 445.616C689.601 430.537 694.198 424.151 695.073 423.82C698.078 422.682 700 419.702 699.997 416.187C699.995 413.444 698.697 410.965 696.646 409.788C694.84 408.751 668.035 363.615 668.019 361.583C667.979 356.544 662.306 352.389 657.672 354.005C656.133 354.541 655.981 354.45 649.777 349.268C644.432 344.805 643.45 343.77 643.444 342.6C643.428 339.076 641.465 337.355 634.646 334.888L628.853 332.792L629.058 329.044C629.509 320.82 626.155 312.191 620.162 306.152C616.908 302.874 612.822 300.067 610.117 299.251C609.246 298.987 608.92 299.159 608.585 300.056ZM677.804 387.928C684.33 398.977 689.67 408.156 689.67 408.327C689.67 408.497 688.961 409.003 688.094 409.452C686.56 410.245 686.496 410.236 685.757 409.126C685.34 408.499 679.888 399.34 673.644 388.773L662.29 369.561L663.561 368.736C664.26 368.282 665.081 367.895 665.385 367.875C665.688 367.856 671.276 376.879 677.804 387.928ZM688.476 424.24C688.187 424.995 663.704 461.273 662.878 462.173C662.399 462.694 662.003 462.648 660.733 461.927C659.876 461.44 659.262 460.821 659.368 460.55C659.572 460.029 684.503 423.099 685.336 422.083C685.958 421.325 688.836 423.303 688.476 424.24Z" fill="#4D4D4D"/>
<defs>
<linearGradient id="paint0_linear_69_118" x1="600.217" y1="325.081" x2="367.365" y2="205.45" gradientUnits="userSpaceOnUse">
<stop stop-color="#0AA1D1"/>
<stop offset="1" stop-color="#0AA1D1" stop-opacity="0"/>
</linearGradient>
</defs>
</svg>
