<svg width="250" height="27" viewBox="0 0 250 27" fill="none" xmlns="http://www.w3.org/2000/svg">
<path d="M139.811 24.6218C139.005 25.0631 137.988 25.4659 136.761 25.8304C135.533 26.1949 134.113 26.3772 132.502 26.3772C130.89 26.3772 129.423 26.099 128.099 25.5427C126.775 24.9863 125.644 24.2286 124.704 23.2694C123.764 22.291 123.035 21.1495 122.517 19.845C122.018 18.5214 121.768 17.0922 121.768 15.5575C121.768 14.0227 122.027 12.6031 122.545 11.2986C123.063 9.97494 123.783 8.84309 124.704 7.90308C125.644 6.94389 126.766 6.19572 128.07 5.65857C129.375 5.12142 130.814 4.85285 132.387 4.85285C133.768 4.85285 135.034 5.06387 136.185 5.48591C137.336 5.90796 138.353 6.48348 139.235 7.21246L138.775 7.67288C138.391 7.30838 137.94 6.99185 137.423 6.72327C136.924 6.43552 136.387 6.19572 135.811 6.00388C135.255 5.81204 134.679 5.66816 134.084 5.57224C133.49 5.47632 132.914 5.42836 132.358 5.42836C130.862 5.42836 129.5 5.69694 128.272 6.23409C127.044 6.75205 125.989 7.47145 125.106 8.39227C124.243 9.3131 123.572 10.3874 123.092 11.6152C122.632 12.8429 122.402 14.157 122.402 15.5575C122.402 16.9579 122.632 18.2816 123.092 19.5285C123.553 20.7755 124.214 21.8689 125.078 22.809C125.96 23.7298 127.025 24.4588 128.272 24.9959C129.538 25.5331 130.967 25.8016 132.559 25.8016C133.941 25.8016 135.168 25.6578 136.243 25.37C137.317 25.0822 138.305 24.7178 139.207 24.2765V16.2768H133.912V15.7301H139.811V24.6218Z" fill="#1D1D1D"/>
<path d="M168.584 25.8016V15.5575H154.887V25.8016H154.254V5.42836H154.887V14.9819H168.584V5.42836H169.218V25.8016H168.584Z" fill="#1D1D1D"/>
<path d="M188.999 6.00388V25.8016H188.366V6.00388H181.431V5.42836H195.934V6.00388H188.999Z" fill="#1D1D1D"/>
<path d="M208.136 25.8016V5.42836H219.991V6.00388H208.74V14.9532H219.329V15.5287H208.74V25.2261H220.452V25.8016H208.136Z" fill="#1D1D1D"/>
<path d="M249.079 25.8016L234.461 6.23409H234.375V25.8016H233.742V5.42836H234.634L249.281 24.9671H249.367V5.42836H250V25.8016H249.079Z" fill="#1D1D1D"/>
<path d="M0 25.8016V5.42836H11.8556V6.00388H0.604292V14.9532H11.1938V15.5287H0.604292V25.2261H12.316V25.8016H0Z" fill="#1D1D1D"/>
<path d="M40.9435 25.8016L26.3254 6.23409H26.239V25.8016H25.606V5.42836H26.498L41.1449 24.9671H41.2312V5.42836H41.8643V25.8016H40.9435Z" fill="#1D1D1D"/>
<path d="M56.6074 25.8016V5.42836H57.2405V25.2261H67.3696V25.8016H56.6074Z" fill="#1D1D1D"/>
<path d="M93.1615 21.6224L95.5349 25.8016H76.0833L90.6849 0.622803L102.81 21.5708H107.66L100.385 8.98135H105.287L114.987 25.8016H100.333L90.6849 9.03295L83.4099 21.6224H93.1615Z" fill="#1D1D1D"/>
<path d="M100.901 0.674397L103.171 4.80207H98.3211L96.1541 0.674397H100.901Z" fill="#0AA1D1"/>
</svg>
