<svg width="96" height="96" viewBox="0 0 96 96" fill="none" xmlns="http://www.w3.org/2000/svg">
<path d="M86.2578 48.1087C87.0131 48.1107 87.7615 47.9636 88.4599 47.6759C89.1583 47.3882 89.7931 46.9656 90.3279 46.4322C90.8628 45.8988 91.2871 45.2651 91.5766 44.5674C91.8661 43.8698 92.0151 43.1218 92.0151 42.3665C92.0151 41.6111 91.8661 40.8632 91.5766 40.1655C91.2871 39.4679 90.8628 38.8342 90.3279 38.3008C89.7931 37.7674 89.1583 37.3447 88.4599 37.057C87.7615 36.7694 87.0131 36.6223 86.2578 36.6243C86.1311 36.6243 86.0124 36.6536 85.8879 36.6617L83.9609 29.0608C84.6006 28.5831 85.1332 27.9767 85.5244 27.2808C85.9157 26.5848 86.157 25.8147 86.2328 25.0199C86.3085 24.2251 86.2171 23.4233 85.9644 22.666C85.7117 21.9086 85.3033 21.2126 84.7654 20.6225C84.2276 20.0325 83.5722 19.5616 82.8414 19.2401C82.1106 18.9185 81.3206 18.7535 80.5222 18.7556C79.7238 18.7577 78.9347 18.9269 78.2057 19.2523C77.4766 19.5776 76.8237 20.052 76.2889 20.6448L56.727 11.5511C56.9317 10.9696 57.0399 10.3586 57.0476 9.74222C57.0496 8.98687 56.9025 8.23855 56.6149 7.54012C56.3272 6.8417 55.9045 6.2069 55.3711 5.67208C54.8377 5.13726 54.204 4.71293 53.5064 4.42341C52.8087 4.13389 52.0608 3.98486 51.3054 3.98486C50.5501 3.98486 49.8021 4.13389 49.1045 4.42341C48.4068 4.71293 47.7731 5.13726 47.2397 5.67208C46.7063 6.2069 46.2836 6.8417 45.996 7.54012C45.7083 8.23855 45.5612 8.98687 45.5632 9.74222C45.5728 9.93901 45.5926 10.1352 45.6228 10.3299L33.167 14.1467C32.3081 13.0742 31.0918 12.3468 29.7405 12.0976C28.3892 11.8485 26.9934 12.0943 25.8085 12.79C24.6236 13.4857 23.7289 14.5849 23.2881 15.8863C22.8473 17.1877 22.8898 18.6044 23.408 19.877L11.6856 30.3381C10.8021 29.798 9.78785 29.5098 8.75243 29.5047C7.38164 29.5005 6.05487 29.9884 5.01325 30.8795C3.97164 31.7707 3.28432 33.0059 3.07622 34.3609C2.86812 35.7158 3.15304 37.1004 3.87921 38.263C4.60538 39.4257 5.72459 40.2892 7.03343 40.6967L6.25535 48.1591C5.38113 48.2809 4.54689 48.6031 3.81775 49.1005C3.08862 49.5979 2.48432 50.2572 2.05203 51.0267C1.61975 51.7963 1.37117 52.6554 1.32572 53.5369C1.28026 54.4184 1.43915 55.2984 1.78998 56.1084C2.14081 56.9183 2.6741 57.6362 3.3482 58.206C4.02229 58.7758 4.81897 59.1821 5.67602 59.3932C6.53308 59.6043 7.42732 59.6144 8.28894 59.4228C9.15056 59.2312 9.95623 58.8431 10.6431 58.2887L14.5068 59.9879C14.5058 60.0292 14.4948 60.0675 14.4948 60.1088C14.493 61.5441 15.0295 62.928 15.9983 63.9871C16.9671 65.0461 18.2979 65.7034 19.7278 65.829C21.1576 65.9546 22.5826 65.5394 23.7212 64.6655C24.8599 63.7916 25.6294 62.5225 25.8779 61.1088H30.2932C30.6389 62.3575 31.3985 63.4517 32.4474 64.2123C33.4963 64.9729 34.7724 65.3548 36.0667 65.2955C37.361 65.2361 38.5967 64.739 39.5716 63.8855C40.5465 63.0321 41.2026 61.8729 41.4326 60.5978L53.8606 61.0035C54.77 61.7884 55.9073 62.2606 57.1052 62.3508C58.3031 62.4409 59.4982 62.1442 60.5149 61.5043C67.5305 65.3318 73.4479 70.8936 77.7024 77.6588C77.4226 78.3405 77.2778 79.0701 77.2761 79.807C77.2711 80.7881 77.5176 81.7541 77.9919 82.6128C78.4663 83.4716 79.1528 84.1945 79.9859 84.7126C80.819 85.2307 81.771 85.5266 82.751 85.5723C83.731 85.618 84.7064 85.4118 85.5841 84.9734C86.4618 84.535 87.2125 83.8791 87.7647 83.0682C88.3168 82.2572 88.652 81.3184 88.7383 80.3411C88.8245 79.3638 88.659 78.3807 88.2573 77.4856C87.8557 76.5905 87.2315 75.8132 86.4441 75.2279C84.4351 72.304 83.0246 69.0114 82.2938 65.5399C83.2783 65.2268 84.159 64.6514 84.8412 63.8755C85.5234 63.0996 85.9813 62.1526 86.1659 61.136C86.3505 60.1195 86.2547 59.0719 85.8888 58.1057C85.5229 57.1395 84.9008 56.2912 84.0891 55.6519L86.2532 48.1085L86.2578 48.1087ZM88.5156 42.3665C88.5156 42.813 88.3832 43.2496 88.1351 43.6209C87.887 43.9922 87.5344 44.2816 87.1219 44.4525C86.7093 44.6234 86.2553 44.6681 85.8173 44.581C85.3794 44.4938 84.977 44.2788 84.6613 43.963C84.3455 43.6473 84.1305 43.245 84.0433 42.807C83.9562 42.369 84.0009 41.915 84.1718 41.5025C84.3427 41.0899 84.6321 40.7373 85.0034 40.4892C85.3747 40.2411 85.8112 40.1087 86.2578 40.1087C86.8565 40.1089 87.4306 40.3469 87.854 40.7703C88.2774 41.1936 88.5153 41.7677 88.5156 42.3665ZM83.9396 37.1233C83.0022 37.5423 82.1944 38.2053 81.6006 39.0431C81.0069 39.8809 80.6489 40.8627 80.5642 41.886H76.0788C76.0134 41.1045 75.7876 40.3449 75.4154 39.6546C75.0433 38.9642 74.5329 38.358 73.916 37.8738L79.5456 30.1418C80.4069 30.3145 81.2984 30.2586 82.1314 29.9797L83.9396 37.1233ZM74.8459 59.3936L63.2507 56.4243C63.2042 55.1302 62.7173 53.8907 61.8707 52.9109L66.5533 46.6104C67.271 47.2869 68.1574 47.7581 69.1197 47.9747C70.0819 48.1912 71.0847 48.1452 72.023 47.8413L77.0328 55.5767C76.4341 56.0368 75.9325 56.611 75.5571 57.2661C75.1818 57.9213 74.94 58.6444 74.846 59.3936H74.8459ZM33.0002 21.54L49.3282 30.0823C48.9793 31.0964 48.9553 32.1942 49.2596 33.2226L38.7788 38.6128C38.2453 37.9917 37.5844 37.4927 36.841 37.1495C36.0975 36.8064 35.289 36.6273 34.4702 36.6243C34.4231 36.6243 34.3794 36.637 34.3325 36.6382L30.5554 23.158C31.497 22.8401 32.3396 22.2824 33.0002 21.54ZM77.5989 29.4153L72.1323 36.9255C71.2098 36.6067 70.219 36.5393 69.2618 36.7304C68.3046 36.9216 67.4156 37.3642 66.6863 38.0129L60.3237 33.2109C60.5428 32.5256 60.5909 31.7971 60.4637 31.0889L75.2911 26.8501C75.7801 27.9209 76.5855 28.8162 77.5989 29.4153ZM70.3852 44.6243C69.9387 44.6243 69.5021 44.4919 69.1308 44.2438C68.7595 43.9957 68.4702 43.6431 68.2993 43.2305C68.1284 42.8179 68.0837 42.364 68.1708 41.926C68.2579 41.488 68.4729 41.0857 68.7887 40.7699C69.1045 40.4542 69.5068 40.2391 69.9447 40.152C70.3827 40.0649 70.8367 40.1096 71.2493 40.2805C71.6618 40.4514 72.0145 40.7408 72.2626 41.1121C72.5107 41.4834 72.6431 41.9199 72.6431 42.3665C72.6428 42.9652 72.4048 43.5393 71.9815 43.9627C71.5581 44.386 70.984 44.624 70.3852 44.6243ZM54.7898 34.0203C54.3432 34.0203 53.9067 33.8879 53.5354 33.6398C53.1641 33.3917 52.8747 33.0391 52.7038 32.6265C52.5329 32.214 52.4882 31.76 52.5753 31.322C52.6624 30.884 52.8774 30.4817 53.1932 30.1659C53.509 29.8502 53.9113 29.6351 54.3493 29.548C54.7872 29.4609 55.2412 29.5056 55.6538 29.6765C56.0663 29.8474 56.419 30.1368 56.6671 30.5081C56.9152 30.8794 57.0476 31.3159 57.0476 31.7625C57.0473 32.3612 56.8093 32.9353 56.386 33.3587C55.9626 33.782 55.3885 34.02 54.7898 34.0203ZM34.4702 40.1087C34.9168 40.1087 35.3533 40.2411 35.7246 40.4892C36.0959 40.7373 36.3853 41.0899 36.5562 41.5024C36.7271 41.915 36.7718 42.369 36.6847 42.807C36.5976 43.245 36.3825 43.6473 36.0668 43.963C35.751 44.2788 35.3487 44.4938 34.9107 44.581C34.4727 44.6681 34.0187 44.6234 33.6062 44.4525C33.1936 44.2816 32.841 43.9922 32.5929 43.6209C32.3448 43.2496 32.2124 42.813 32.2124 42.3665C32.2127 41.7677 32.4507 41.1936 32.874 40.7703C33.2974 40.3469 33.8715 40.109 34.4702 40.1087ZM40.2124 42.3665C40.2081 41.6672 40.0748 40.9746 39.8191 40.3237L50.092 35.0445C50.6192 35.8025 51.3216 36.422 52.1395 36.8503C52.9574 37.2786 53.8667 37.5031 54.79 37.5047C54.8237 37.5047 54.8549 37.4951 54.8884 37.4947L53.1506 52.136L37.5276 54.1133C37.2158 54.0132 36.896 53.9404 36.5716 53.8955L35.378 48.0169C36.7233 47.8019 37.9482 47.1155 38.8339 46.0804C39.7196 45.0452 40.2082 43.7288 40.2124 42.3665ZM35.7956 57.3013C36.2422 57.3013 36.6787 57.4337 37.05 57.6818C37.4213 57.9299 37.7107 58.2825 37.8816 58.6951C38.0525 59.1076 38.0972 59.5616 38.01 59.9996C37.9229 60.4375 37.7079 60.8398 37.3921 61.1556C37.0764 61.4714 36.6741 61.6864 36.2361 61.7735C35.7981 61.8606 35.3442 61.8159 34.9316 61.645C34.5191 61.4741 34.1664 61.1848 33.9183 60.8135C33.6702 60.4422 33.5378 60.0056 33.5378 59.5591C33.5381 58.9604 33.7761 58.3863 34.1995 57.9629C34.6228 57.5396 35.1969 57.3016 35.7956 57.3013ZM40.1011 55.8018L52.3113 54.2591C51.969 54.9937 51.79 55.7939 51.7867 56.6043C51.7833 57.4148 51.9557 58.2164 52.292 58.9539L41.4407 58.5982C41.2615 57.5601 40.7977 56.592 40.1011 55.8018ZM56.9529 37.0738C57.9645 36.6575 58.8369 35.962 59.468 35.0684L65.4106 39.5547C64.9292 40.3695 64.6654 41.2943 64.6444 42.2405C64.6234 43.1866 64.8459 44.1222 65.2906 44.9576L60.3204 51.6387C59.5588 51.1966 58.7035 50.9404 57.8242 50.8909C56.9449 50.8415 56.0663 51.0003 55.2599 51.3543L56.9529 37.0738ZM80.5156 22.24C80.9622 22.24 81.3987 22.3725 81.77 22.6205C82.1413 22.8686 82.4307 23.2213 82.6015 23.6338C82.7724 24.0464 82.8171 24.5004 82.73 24.9383C82.6429 25.3763 82.4278 25.7786 82.1121 26.0943C81.7963 26.4101 81.394 26.6251 80.9561 26.7122C80.5181 26.7994 80.0641 26.7546 79.6516 26.5837C79.239 26.4129 78.8864 26.1235 78.6383 25.7522C78.3902 25.3809 78.2578 24.9444 78.2578 24.4978C78.2581 23.8991 78.4961 23.325 78.9194 22.9016C79.3428 22.4783 79.9169 22.2403 80.5156 22.24ZM75.2017 22.343C74.9204 23.0267 74.7749 23.7586 74.7734 24.4978C74.7734 24.6378 74.8049 24.7693 74.8149 24.9067L59.8852 29.1729C59.4095 28.2284 58.6817 27.434 57.7824 26.8775C56.8831 26.3211 55.8473 26.0244 54.7898 26.0203C54.6147 26.0203 54.4498 26.0567 54.2786 26.0721L52.1953 15.3943C53.6043 15.1702 54.8784 14.4269 55.7668 13.3106L75.2017 22.343ZM51.3054 7.48438C51.752 7.48437 52.1885 7.61678 52.5598 7.86487C52.9311 8.11296 53.2205 8.46559 53.3914 8.87815C53.5623 9.29072 53.607 9.7447 53.5199 10.1827C53.4328 10.6207 53.2177 11.023 52.902 11.3387C52.5862 11.6545 52.1839 11.8696 51.7459 11.9567C51.3079 12.0438 50.854 11.9991 50.4414 11.8282C50.0288 11.6573 49.6762 11.3679 49.4281 10.9966C49.18 10.6253 49.0476 10.1888 49.0476 9.74222C49.0479 9.1435 49.2858 8.56938 49.7092 8.14602C50.1326 7.72265 50.7067 7.48468 51.3054 7.48438ZM46.1672 12.2529C46.5502 13.0416 47.1083 13.7323 47.7991 14.2721C48.4899 14.812 49.295 15.1867 50.1528 15.3677L52.3428 26.5894C51.5146 26.9847 50.793 27.5724 50.238 28.3033L34.0606 19.8374C34.5739 18.5928 34.606 17.2017 34.1504 15.9348L46.1672 12.2529ZM28.728 15.4844C29.1746 15.4844 29.6111 15.6168 29.9824 15.8649C30.3537 16.113 30.6431 16.4656 30.814 16.8782C30.9849 17.2907 31.0296 17.7447 30.9424 18.1827C30.8553 18.6207 30.6403 19.023 30.3245 19.3388C30.0088 19.6545 29.6065 19.8696 29.1685 19.9567C28.7305 20.0438 28.2765 19.9991 27.864 19.8282C27.4514 19.6573 27.0988 19.3679 26.8507 18.9966C26.6026 18.6253 26.4702 18.1888 26.4702 17.7422C26.4704 17.1435 26.7084 16.5694 27.1318 16.146C27.5551 15.7226 28.1293 15.4847 28.728 15.4844ZM28.5652 23.4678L32.3686 37.0358C31.2707 37.4699 30.3323 38.2304 29.6804 39.2147L14.4851 35.3419L14.4946 35.2467C14.4885 33.9394 14.032 32.6741 13.2019 31.664L24.496 21.5884C25.0122 22.1602 25.6389 22.6216 26.3382 22.9446C27.0376 23.2676 27.7952 23.4456 28.5652 23.4678ZM9.34495 53.8169C9.34495 54.2635 9.21253 54.7 8.96444 55.0713C8.71635 55.4426 8.36373 55.7319 7.95118 55.9028C7.53862 56.0737 7.08465 56.1184 6.64668 56.0313C6.20871 55.9442 5.80641 55.7292 5.49065 55.4134C5.17489 55.0976 4.95985 54.6953 4.87274 54.2574C4.78562 53.8194 4.83033 53.3654 5.00122 52.9529C5.17211 52.5403 5.46149 52.1877 5.83279 51.9396C6.20408 51.6915 6.6406 51.5591 7.08715 51.5591C7.68587 51.5594 8.25998 51.7974 8.68333 52.2207C9.10669 52.6441 9.34466 53.2182 9.34495 53.8169ZM8.26291 48.198L9.01951 40.962C10.1288 40.91 11.1991 40.5369 12.1003 39.888C13.0015 39.2391 13.6948 38.3424 14.096 37.3069L28.886 41.0791C28.6958 41.8342 28.6771 42.6223 28.8313 43.3855L11.4617 50.1431C10.6436 49.1546 9.51704 48.4696 8.26291 48.198ZM8.75243 32.989C9.19899 32.989 9.63553 33.1214 10.0068 33.3695C10.3781 33.6176 10.6675 33.9702 10.8384 34.3828C11.0093 34.7954 11.054 35.2493 10.9669 35.6873C10.8798 36.1253 10.6648 36.5276 10.349 36.8434C10.0333 37.1591 9.63095 37.3742 9.19297 37.4613C8.75499 37.5484 8.30101 37.5037 7.88844 37.3328C7.47588 37.1619 7.12325 36.8726 6.87515 36.5013C6.62705 36.13 6.49463 35.6934 6.49463 35.2469C6.49492 34.6481 6.73288 34.074 7.15624 33.6507C7.5796 33.2273 8.15371 32.9893 8.75243 32.989ZM12.0188 56.708C12.4569 55.9944 12.7258 55.1898 12.8049 54.3562C12.8839 53.5225 12.771 52.6817 12.4748 51.8985L29.5385 45.2573C29.925 45.9175 30.4397 46.4937 31.0521 46.9521C31.6646 47.4104 32.3626 47.7417 33.105 47.9263L25.6458 58.2586C25.272 57.1482 24.5661 56.1795 23.6235 55.4837C22.6809 54.7879 21.5472 54.3986 20.376 54.3686C19.2047 54.3385 18.0526 54.6692 17.0756 55.3158C16.0986 55.9624 15.3439 56.8936 14.9138 57.9834L12.0188 56.708ZM20.2368 62.3665C19.7902 62.3665 19.3537 62.234 18.9824 61.9859C18.6111 61.7378 18.3218 61.3852 18.1509 60.9727C17.98 60.5601 17.9353 60.1061 18.0224 59.6682C18.1095 59.2302 18.3246 58.8279 18.6403 58.5121C18.9561 58.1964 19.3584 57.9814 19.7964 57.8942C20.2343 57.8071 20.6883 57.8518 21.1009 58.0227C21.5134 58.1936 21.866 58.483 22.1141 58.8543C22.3622 59.2256 22.4946 59.6621 22.4946 60.1087C22.4943 60.7074 22.2564 61.2815 21.833 61.7048C21.4096 62.1282 20.8355 62.3662 20.2368 62.3665ZM33.8655 49.144L34.58 53.9527C33.379 54.2181 32.2952 54.8626 31.4884 55.791C30.6816 56.7193 30.1945 57.8824 30.099 59.1087H27.299L33.8655 49.144ZM57.5288 58.8823C57.0822 58.8823 56.6457 58.7499 56.2744 58.5018C55.9031 58.2537 55.6137 57.9011 55.4428 57.4885C55.2719 57.0759 55.2272 56.6219 55.3143 56.184C55.4015 55.746 55.6165 55.3437 55.9323 55.0279C56.248 54.7122 56.6504 54.4971 57.0883 54.41C57.5263 54.3229 57.9803 54.3676 58.3929 54.5385C58.8054 54.7094 59.158 54.9988 59.4061 55.3701C59.6542 55.7414 59.7866 56.1779 59.7866 56.6245C59.7863 57.2232 59.5483 57.7972 59.1249 58.2206C58.7016 58.6439 58.1275 58.8818 57.5288 58.8821V58.8823ZM83.0183 82.0649C82.5718 82.0649 82.1352 81.9325 81.7639 81.6844C81.3927 81.4363 81.1033 81.0837 80.9324 80.6711C80.7615 80.2586 80.7168 79.8046 80.8039 79.3666C80.891 78.9286 81.106 78.5263 81.4218 78.2106C81.7376 77.8948 82.1399 77.6798 82.5778 77.5927C83.0158 77.5056 83.4698 77.5503 83.8823 77.7212C84.2949 77.8921 84.6475 78.1814 84.8956 78.5527C85.1437 78.924 85.2761 79.3605 85.2761 79.8071C85.2758 80.4058 85.0378 80.9798 84.6144 81.4031C84.1911 81.8265 83.617 82.0644 83.0183 82.0647V82.0649ZM83.0183 74.0649C82.2561 74.0653 81.5018 74.2179 80.7994 74.5139C80.0971 74.8099 79.461 75.2433 78.9285 75.7885C74.6688 69.2651 68.8884 63.874 62.0842 60.0788C62.4184 59.6427 62.6878 59.1606 62.884 58.6474L74.976 61.539C75.2865 62.7401 75.9782 63.8081 76.9473 64.5826C77.9164 65.3572 79.1106 65.7964 80.3506 65.8345C80.8475 68.7648 81.8998 71.5732 83.4509 74.1086C83.3057 74.0974 83.1665 74.0647 83.0183 74.0647V74.0649ZM80.5156 62.3667C80.0691 62.3667 79.6326 62.2342 79.2613 61.9862C78.89 61.7381 78.6006 61.3854 78.4297 60.9729C78.2588 60.5603 78.2141 60.1064 78.3012 59.6684C78.3883 59.2304 78.6034 58.8281 78.9191 58.5124C79.2349 58.1966 79.6372 57.9816 80.0752 57.8944C80.5131 57.8073 80.9671 57.852 81.3797 58.0229C81.7922 58.1938 82.1448 58.4832 82.3929 58.8545C82.641 59.2258 82.7734 59.6623 82.7734 60.1089C82.7731 60.7075 82.5351 61.2816 82.1117 61.7049C81.6884 62.1282 81.1143 62.3662 80.5156 62.3665V62.3667ZM82.2916 54.6767C81.1698 54.2715 79.9429 54.2632 78.8156 54.6533L73.8179 46.94C74.8289 46.1794 75.5599 45.1056 75.8969 43.8861H80.7461C80.9886 44.7617 81.4355 45.5673 82.05 46.2366C82.6645 46.9059 83.4291 47.4197 84.281 47.7359L82.2916 54.6767Z" fill="#1D1D1D"/>
</svg>
